<?xml version="1.0" standalone="no"?>
<!DOCTYPE svg PUBLIC "-//W3C//DTD SVG 20010904//EN"
 "http://www.w3.org/TR/2001/REC-SVG-20010904/DTD/svg10.dtd">
<svg version="1.0" xmlns="http://www.w3.org/2000/svg"
 width="38.000000pt" height="35.000000pt" viewBox="0 0 38.000000 35.000000"
 preserveAspectRatio="xMidYMid meet">

<g transform="translate(0.000000,35.000000) scale(0.100000,-0.100000)"
fill="#000000" stroke="none">
<path d="M73 317 c-55 -20 -57 -31 -13 -55 l40 -21 0 30 c0 25 4 29 26 29 41
0 64 -18 64 -49 0 -24 -6 -31 -44 -45 -44 -17 -56 -34 -56 -82 0 -20 17 -34
41 -34 6 0 8 18 3 45 -5 34 -3 46 7 49 129 38 144 45 153 69 13 34 -3 52 -59
66 -55 14 -120 13 -162 -2z"/>
<path d="M313 323 c-21 -8 -15 -22 7 -16 14 4 20 0 20 -11 0 -9 -4 -16 -10
-16 -5 0 -10 -4 -10 -10 0 -5 7 -7 16 -3 9 3 14 15 12 31 -3 26 -14 34 -35 25z"/>
<path d="M277 183 c-4 -3 -7 -11 -7 -17 0 -6 5 -5 12 2 14 14 48 16 48 2 0 -5
-9 -14 -20 -20 -11 -6 -20 -17 -20 -25 0 -10 8 -6 26 10 31 28 26 55 -9 55
-13 0 -27 -3 -30 -7z"/>
<path d="M32 168 c-6 -6 -12 -18 -12 -26 0 -9 7 -5 19 9 26 32 39 16 18 -20
-23 -40 -21 -49 4 -17 23 29 22 59 -1 64 -9 1 -21 -3 -28 -10z"/>
<path d="M197 163 c-11 -10 -8 -43 3 -43 5 0 7 6 4 14 -3 8 -1 17 5 21 6 3 15
-4 20 -17 7 -18 5 -25 -10 -30 -12 -5 -18 -16 -18 -30 l2 -23 4 23 c3 14 12
22 24 22 22 0 23 8 9 44 -9 25 -29 34 -43 19z"/>
<path d="M92 63 c4 -22 38 -30 49 -12 11 19 2 29 -27 29 -19 0 -25 -5 -22 -17z"/>
</g>
</svg>
