<svg xmlns="http://www.w3.org/2000/svg" width="217" height="35" viewBox="0 0 217 35" version="1.1"><path d="M 21.557 6.223 C 20.701 7.445, 20 9.595, 20 11 C 20 14.037, 22.548 18, 24.500 18 C 26.452 18, 29 14.037, 29 11 C 29 7.963, 26.452 4, 24.500 4 C 23.737 4, 22.413 5, 21.557 6.223 M 7.040 6.452 C 4.392 9.642, 8.299 14.657, 11.416 12.070 C 13.297 10.508, 13.470 7.870, 11.800 6.200 C 10.197 4.597, 8.505 4.686, 7.040 6.452 M 42 11.906 C 42 14.323, 41.662 14.724, 39.995 14.288 C 37.427 13.617, 35 15.626, 35 18.422 C 35 21.441, 36.857 23, 40.451 23 L 43.501 23 43.713 16 C 43.833 12.036, 43.507 9, 42.962 9 C 42.433 9, 42 10.308, 42 11.906 M 69.200 10.200 C 68.540 10.860, 68 11.947, 68 12.617 C 68 13.286, 67.438 14.096, 66.750 14.417 C 65.750 14.883, 65.750 15.117, 66.750 15.583 C 67.438 15.904, 68.007 17.817, 68.015 19.833 C 68.027 22.557, 68.278 23.114, 68.992 22 C 69.522 21.175, 69.699 19.681, 69.388 18.680 C 68.989 17.400, 69.441 16.697, 70.910 16.313 C 73.310 15.686, 73.740 14, 71.500 14 C 70.675 14, 70 13.325, 70 12.500 C 70 11.675, 70.675 11, 71.500 11 C 72.325 11, 73 10.550, 73 10 C 73 8.620, 70.656 8.744, 69.200 10.200 M 83 16 C 83 23.007, 84.597 25.801, 85.187 19.827 C 85.603 15.616, 88 14.790, 88 18.858 C 88 20.521, 88.478 22.177, 89.062 22.538 C 89.766 22.973, 90.019 21.728, 89.812 18.847 C 89.541 15.070, 89.205 14.510, 87.250 14.579 C 85.428 14.644, 85 14.120, 85 11.829 C 85 10.273, 84.550 9, 84 9 C 83.429 9, 83 12, 83 16 M 102 16 C 102 20.033, 102.189 23.145, 102.419 22.914 C 103.150 22.183, 103.378 10.044, 102.674 9.341 C 102.303 8.970, 102 11.967, 102 16 M 135.750 9.571 C 135.338 9.990, 135 13.183, 135 16.667 L 135 23 138.300 23 C 142.129 23, 144 21.497, 144 18.422 C 144 15.649, 141.579 13.615, 139.061 14.274 C 137.489 14.685, 137.051 14.204, 136.805 11.796 C 136.637 10.153, 136.162 9.152, 135.750 9.571 M 163 11.906 C 163 14.323, 162.662 14.724, 160.995 14.288 C 158.427 13.617, 156 15.626, 156 18.422 C 156 21.441, 157.857 23, 161.451 23 L 164.501 23 164.713 16 C 164.833 12.036, 164.507 9, 163.962 9 C 163.433 9, 163 10.308, 163 11.906 M 187.750 9.571 C 187.338 9.990, 187 13.183, 187 16.667 L 187 23 190.300 23 C 194.129 23, 196 21.497, 196 18.422 C 196 15.649, 193.579 13.615, 191.061 14.274 C 189.489 14.685, 189.051 14.204, 188.805 11.796 C 188.637 10.153, 188.162 9.152, 187.750 9.571 M 77 12.500 C 77 13.325, 76.325 14, 75.500 14 C 74.675 14, 74 14.450, 74 15 C 74 15.550, 74.675 16, 75.500 16 C 76.548 16, 77 17.056, 77 19.500 C 77 21.425, 77.450 23, 78 23 C 78.550 23, 79 21.587, 79 19.860 C 79 18.043, 79.737 16.161, 80.750 15.392 C 82.417 14.127, 82.417 14.062, 80.750 14.032 C 79.787 14.014, 79 13.325, 79 12.500 C 79 11.675, 78.550 11, 78 11 C 77.450 11, 77 11.675, 77 12.500 M 209 12.500 C 209 13.325, 208.325 14, 207.500 14 C 206.675 14, 206 14.450, 206 15 C 206 15.550, 206.675 16, 207.500 16 C 208.548 16, 209 17.056, 209 19.500 C 209 21.425, 209.450 23, 210 23 C 210.550 23, 211 21.587, 211 19.860 C 211 18.043, 211.737 16.161, 212.750 15.392 C 214.417 14.127, 214.417 14.062, 212.750 14.032 C 211.787 14.014, 211 13.325, 211 12.500 C 211 11.675, 210.550 11, 210 11 C 209.450 11, 209 11.675, 209 12.500 M 146 20.500 C 146 24.833, 146.422 28, 147 28 C 147.550 28, 148 26.875, 148 25.500 C 148 23.759, 148.547 23, 149.800 23 C 152.228 23, 154 21.069, 154 18.422 C 154 15.766, 151.572 13.567, 149.513 14.357 C 148.681 14.676, 148 14.501, 148 13.969 C 148 13.436, 147.550 13, 147 13 C 146.422 13, 146 16.167, 146 20.500 M 46.193 18.250 C 46.481 22.239, 46.699 22.519, 49.750 22.813 C 52.988 23.126, 53 23.109, 53 18.563 C 53 16.054, 52.550 14, 52 14 C 51.450 14, 51 15.575, 51 17.500 C 51 19.944, 50.548 21, 49.500 21 C 48.050 21, 47.576 19.400, 47.948 15.750 C 48.046 14.787, 47.622 14, 47.005 14 C 46.306 14, 46 15.596, 46.193 18.250 M 92 18.698 C 92 21.064, 92.450 23, 93 23 C 93.550 23, 94 21.698, 94 20.107 C 94 16.957, 96.768 15.031, 98.155 17.216 C 98.721 18.108, 98.974 17.844, 98.985 16.349 C 98.998 14.536, 98.450 14.214, 95.500 14.297 C 92.058 14.395, 92 14.467, 92 18.698 M 108.250 15.031 C 105.176 16.267, 105.421 18.622, 108.750 19.838 L 111.500 20.842 108.050 20.921 C 105.583 20.978, 104.907 21.307, 105.678 22.078 C 107.314 23.714, 112.428 22.787, 112.808 20.786 C 113.027 19.628, 112.268 18.854, 110.471 18.403 C 108.666 17.950, 108.213 17.486, 109.064 16.960 C 109.754 16.534, 110.922 16.417, 111.659 16.700 C 112.437 16.998, 113 16.540, 113 15.607 C 113 13.830, 111.647 13.666, 108.250 15.031 M 117.250 15.031 C 114.176 16.267, 114.421 18.622, 117.750 19.838 L 120.500 20.842 117.050 20.921 C 114.583 20.978, 113.907 21.307, 114.678 22.078 C 116.314 23.714, 121.428 22.787, 121.808 20.786 C 122.027 19.628, 121.268 18.854, 119.471 18.403 C 117.666 17.950, 117.213 17.486, 118.064 16.960 C 118.754 16.534, 119.922 16.417, 120.659 16.700 C 121.437 16.998, 122 16.540, 122 15.607 C 122 13.830, 120.647 13.666, 117.250 15.031 M 169.250 15.031 C 166.176 16.267, 166.421 18.622, 169.750 19.838 L 172.500 20.842 169.050 20.921 C 166.583 20.978, 165.907 21.307, 166.678 22.078 C 168.314 23.714, 173.428 22.787, 173.808 20.786 C 174.027 19.628, 173.268 18.854, 171.471 18.403 C 169.666 17.950, 169.213 17.486, 170.064 16.960 C 170.754 16.534, 171.922 16.417, 172.659 16.700 C 173.437 16.998, 174 16.540, 174 15.607 C 174 13.830, 172.647 13.666, 169.250 15.031 M 199.050 15.440 C 198.393 16.231, 198.001 18.144, 198.178 19.690 C 198.431 21.897, 199.013 22.500, 200.891 22.500 C 203.928 22.500, 205.484 20.065, 204.628 16.655 C 203.887 13.702, 201.012 13.076, 199.050 15.440 M 30.136 17.717 C 29.925 21.149, 23.509 27, 19.956 27 C 15.719 27, 8.010 23.117, 6.748 20.347 C 5.527 17.666, 4 17.239, 4 19.578 C 4 21.747, 11.316 28.814, 14.172 29.404 C 22.422 31.108, 23.612 31.042, 25.699 28.761 C 28.819 25.348, 31.173 20.131, 30.697 17.682 L 30.272 15.500 30.136 17.717 M 36.720 17.288 C 35.927 19.354, 37.475 21.248, 39.620 20.835 C 42.277 20.323, 42.081 16.583, 39.377 16.197 C 38.210 16.031, 37.014 16.521, 36.720 17.288 M 137.701 16.632 C 137.316 17.018, 137 18.190, 137 19.236 C 137 20.638, 137.593 21.055, 139.250 20.820 C 140.721 20.611, 141.500 19.812, 141.500 18.514 C 141.500 16.530, 139.028 15.306, 137.701 16.632 M 148.667 16.667 C 147.175 18.159, 148.049 21, 150 21 C 151.467 21, 152 20.333, 152 18.500 C 152 16.147, 150.185 15.149, 148.667 16.667 M 157.720 17.288 C 156.927 19.354, 158.475 21.248, 160.620 20.835 C 163.277 20.323, 163.081 16.583, 160.377 16.197 C 159.210 16.031, 158.014 16.521, 157.720 17.288 M 189.701 16.632 C 189.316 17.018, 189 18.190, 189 19.236 C 189 20.638, 189.593 21.055, 191.250 20.820 C 192.721 20.611, 193.500 19.812, 193.500 18.514 C 193.500 16.530, 191.028 15.306, 189.701 16.632 M 199.604 17.590 C 198.845 19.568, 199.666 21, 201.559 21 C 202.429 21, 203 20.010, 203 18.500 C 203 15.704, 200.577 15.054, 199.604 17.590 M 56.768 25.725 C 58.565 25.947, 61.265 25.943, 62.768 25.715 C 64.271 25.486, 62.800 25.304, 59.500 25.310 C 56.200 25.315, 54.971 25.502, 56.768 25.725 M 125.768 25.725 C 127.565 25.947, 130.265 25.943, 131.768 25.715 C 133.271 25.486, 131.800 25.304, 128.500 25.310 C 125.200 25.315, 123.971 25.502, 125.768 25.725 M 177.768 25.725 C 179.565 25.947, 182.265 25.943, 183.768 25.715 C 185.271 25.486, 183.800 25.304, 180.500 25.310 C 177.200 25.315, 175.971 25.502, 177.768 25.725" stroke="none" fill="#ee2e3f" fill-rule="evenodd"/><path d="M -0 17.504 L -0 35.009 108.750 34.754 L 217.500 34.500 217.774 17.250 L 218.047 -0 109.024 -0 L 0 0 -0 17.504 M 0.411 18 C 0.411 27.625, 0.561 31.562, 0.745 26.750 C 0.928 21.937, 0.928 14.062, 0.745 9.250 C 0.561 4.437, 0.411 8.375, 0.411 18 M 21.557 6.223 C 20.701 7.445, 20 9.595, 20 11 C 20 14.037, 22.548 18, 24.500 18 C 26.452 18, 29 14.037, 29 11 C 29 7.963, 26.452 4, 24.500 4 C 23.737 4, 22.413 5, 21.557 6.223 M 7.040 6.452 C 4.392 9.642, 8.299 14.657, 11.416 12.070 C 13.297 10.508, 13.470 7.870, 11.800 6.200 C 10.197 4.597, 8.505 4.686, 7.040 6.452 M 42 11.906 C 42 14.323, 41.662 14.724, 39.995 14.288 C 37.427 13.617, 35 15.626, 35 18.422 C 35 21.441, 36.857 23, 40.451 23 L 43.501 23 43.713 16 C 43.833 12.036, 43.507 9, 42.962 9 C 42.433 9, 42 10.308, 42 11.906 M 69.200 10.200 C 68.540 10.860, 68 11.947, 68 12.617 C 68 13.286, 67.438 14.096, 66.750 14.417 C 65.750 14.883, 65.750 15.117, 66.750 15.583 C 67.438 15.904, 68.007 17.817, 68.015 19.833 C 68.027 22.557, 68.278 23.114, 68.992 22 C 69.522 21.175, 69.699 19.681, 69.388 18.680 C 68.989 17.400, 69.441 16.697, 70.910 16.313 C 73.310 15.686, 73.740 14, 71.500 14 C 70.675 14, 70 13.325, 70 12.500 C 70 11.675, 70.675 11, 71.500 11 C 72.325 11, 73 10.550, 73 10 C 73 8.620, 70.656 8.744, 69.200 10.200 M 83 16 C 83 23.007, 84.597 25.801, 85.187 19.827 C 85.603 15.616, 88 14.790, 88 18.858 C 88 20.521, 88.478 22.177, 89.062 22.538 C 89.766 22.973, 90.019 21.728, 89.812 18.847 C 89.541 15.070, 89.205 14.510, 87.250 14.579 C 85.428 14.644, 85 14.120, 85 11.829 C 85 10.273, 84.550 9, 84 9 C 83.429 9, 83 12, 83 16 M 102 16 C 102 20.033, 102.189 23.145, 102.419 22.914 C 103.150 22.183, 103.378 10.044, 102.674 9.341 C 102.303 8.970, 102 11.967, 102 16 M 135.750 9.571 C 135.338 9.990, 135 13.183, 135 16.667 L 135 23 138.300 23 C 142.129 23, 144 21.497, 144 18.422 C 144 15.649, 141.579 13.615, 139.061 14.274 C 137.489 14.685, 137.051 14.204, 136.805 11.796 C 136.637 10.153, 136.162 9.152, 135.750 9.571 M 163 11.906 C 163 14.323, 162.662 14.724, 160.995 14.288 C 158.427 13.617, 156 15.626, 156 18.422 C 156 21.441, 157.857 23, 161.451 23 L 164.501 23 164.713 16 C 164.833 12.036, 164.507 9, 163.962 9 C 163.433 9, 163 10.308, 163 11.906 M 187.750 9.571 C 187.338 9.990, 187 13.183, 187 16.667 L 187 23 190.300 23 C 194.129 23, 196 21.497, 196 18.422 C 196 15.649, 193.579 13.615, 191.061 14.274 C 189.489 14.685, 189.051 14.204, 188.805 11.796 C 188.637 10.153, 188.162 9.152, 187.750 9.571 M 77 12.500 C 77 13.325, 76.325 14, 75.500 14 C 74.675 14, 74 14.450, 74 15 C 74 15.550, 74.675 16, 75.500 16 C 76.548 16, 77 17.056, 77 19.500 C 77 21.425, 77.450 23, 78 23 C 78.550 23, 79 21.587, 79 19.860 C 79 18.043, 79.737 16.161, 80.750 15.392 C 82.417 14.127, 82.417 14.062, 80.750 14.032 C 79.787 14.014, 79 13.325, 79 12.500 C 79 11.675, 78.550 11, 78 11 C 77.450 11, 77 11.675, 77 12.500 M 209 12.500 C 209 13.325, 208.325 14, 207.500 14 C 206.675 14, 206 14.450, 206 15 C 206 15.550, 206.675 16, 207.500 16 C 208.548 16, 209 17.056, 209 19.500 C 209 21.425, 209.450 23, 210 23 C 210.550 23, 211 21.587, 211 19.860 C 211 18.043, 211.737 16.161, 212.750 15.392 C 214.417 14.127, 214.417 14.062, 212.750 14.032 C 211.787 14.014, 211 13.325, 211 12.500 C 211 11.675, 210.550 11, 210 11 C 209.450 11, 209 11.675, 209 12.500 M 146 20.500 C 146 24.833, 146.422 28, 147 28 C 147.550 28, 148 26.875, 148 25.500 C 148 23.759, 148.547 23, 149.800 23 C 152.228 23, 154 21.069, 154 18.422 C 154 15.766, 151.572 13.567, 149.513 14.357 C 148.681 14.676, 148 14.501, 148 13.969 C 148 13.436, 147.550 13, 147 13 C 146.422 13, 146 16.167, 146 20.500 M 46.193 18.250 C 46.481 22.239, 46.699 22.519, 49.750 22.813 C 52.988 23.126, 53 23.109, 53 18.563 C 53 16.054, 52.550 14, 52 14 C 51.450 14, 51 15.575, 51 17.500 C 51 19.944, 50.548 21, 49.500 21 C 48.050 21, 47.576 19.400, 47.948 15.750 C 48.046 14.787, 47.622 14, 47.005 14 C 46.306 14, 46 15.596, 46.193 18.250 M 92 18.698 C 92 21.064, 92.450 23, 93 23 C 93.550 23, 94 21.698, 94 20.107 C 94 16.957, 96.768 15.031, 98.155 17.216 C 98.721 18.108, 98.974 17.844, 98.985 16.349 C 98.998 14.536, 98.450 14.214, 95.500 14.297 C 92.058 14.395, 92 14.467, 92 18.698 M 108.250 15.031 C 105.176 16.267, 105.421 18.622, 108.750 19.838 L 111.500 20.842 108.050 20.921 C 105.583 20.978, 104.907 21.307, 105.678 22.078 C 107.314 23.714, 112.428 22.787, 112.808 20.786 C 113.027 19.628, 112.268 18.854, 110.471 18.403 C 108.666 17.950, 108.213 17.486, 109.064 16.960 C 109.754 16.534, 110.922 16.417, 111.659 16.700 C 112.437 16.998, 113 16.540, 113 15.607 C 113 13.830, 111.647 13.666, 108.250 15.031 M 117.250 15.031 C 114.176 16.267, 114.421 18.622, 117.750 19.838 L 120.500 20.842 117.050 20.921 C 114.583 20.978, 113.907 21.307, 114.678 22.078 C 116.314 23.714, 121.428 22.787, 121.808 20.786 C 122.027 19.628, 121.268 18.854, 119.471 18.403 C 117.666 17.950, 117.213 17.486, 118.064 16.960 C 118.754 16.534, 119.922 16.417, 120.659 16.700 C 121.437 16.998, 122 16.540, 122 15.607 C 122 13.830, 120.647 13.666, 117.250 15.031 M 169.250 15.031 C 166.176 16.267, 166.421 18.622, 169.750 19.838 L 172.500 20.842 169.050 20.921 C 166.583 20.978, 165.907 21.307, 166.678 22.078 C 168.314 23.714, 173.428 22.787, 173.808 20.786 C 174.027 19.628, 173.268 18.854, 171.471 18.403 C 169.666 17.950, 169.213 17.486, 170.064 16.960 C 170.754 16.534, 171.922 16.417, 172.659 16.700 C 173.437 16.998, 174 16.540, 174 15.607 C 174 13.830, 172.647 13.666, 169.250 15.031 M 199.050 15.440 C 198.393 16.231, 198.001 18.144, 198.178 19.690 C 198.431 21.897, 199.013 22.500, 200.891 22.500 C 203.928 22.500, 205.484 20.065, 204.628 16.655 C 203.887 13.702, 201.012 13.076, 199.050 15.440 M 30.136 17.717 C 29.925 21.149, 23.509 27, 19.956 27 C 15.719 27, 8.010 23.117, 6.748 20.347 C 5.527 17.666, 4 17.239, 4 19.578 C 4 21.747, 11.316 28.814, 14.172 29.404 C 22.422 31.108, 23.612 31.042, 25.699 28.761 C 28.819 25.348, 31.173 20.131, 30.697 17.682 L 30.272 15.500 30.136 17.717 M 36.720 17.288 C 35.927 19.354, 37.475 21.248, 39.620 20.835 C 42.277 20.323, 42.081 16.583, 39.377 16.197 C 38.210 16.031, 37.014 16.521, 36.720 17.288 M 137.701 16.632 C 137.316 17.018, 137 18.190, 137 19.236 C 137 20.638, 137.593 21.055, 139.250 20.820 C 140.721 20.611, 141.500 19.812, 141.500 18.514 C 141.500 16.530, 139.028 15.306, 137.701 16.632 M 148.667 16.667 C 147.175 18.159, 148.049 21, 150 21 C 151.467 21, 152 20.333, 152 18.500 C 152 16.147, 150.185 15.149, 148.667 16.667 M 157.720 17.288 C 156.927 19.354, 158.475 21.248, 160.620 20.835 C 163.277 20.323, 163.081 16.583, 160.377 16.197 C 159.210 16.031, 158.014 16.521, 157.720 17.288 M 189.701 16.632 C 189.316 17.018, 189 18.190, 189 19.236 C 189 20.638, 189.593 21.055, 191.250 20.820 C 192.721 20.611, 193.500 19.812, 193.500 18.514 C 193.500 16.530, 191.028 15.306, 189.701 16.632 M 199.604 17.590 C 198.845 19.568, 199.666 21, 201.559 21 C 202.429 21, 203 20.010, 203 18.500 C 203 15.704, 200.577 15.054, 199.604 17.590 M 56.768 25.725 C 58.565 25.947, 61.265 25.943, 62.768 25.715 C 64.271 25.486, 62.800 25.304, 59.500 25.310 C 56.200 25.315, 54.971 25.502, 56.768 25.725 M 125.768 25.725 C 127.565 25.947, 130.265 25.943, 131.768 25.715 C 133.271 25.486, 131.800 25.304, 128.500 25.310 C 125.200 25.315, 123.971 25.502, 125.768 25.725 M 177.768 25.725 C 179.565 25.947, 182.265 25.943, 183.768 25.715 C 185.271 25.486, 183.800 25.304, 180.500 25.310 C 177.200 25.315, 175.971 25.502, 177.768 25.725" stroke="none" fill="#fbfafa" fill-rule="evenodd"/></svg>