<svg xmlns="http://www.w3.org/2000/svg" width="38" height="35" viewBox="0 0 38 35" version="1.1"><path d="M 12.646 2.452 C 8.696 6.113, 9.252 10.045, 14.072 12.537 C 18.157 14.649, 21.337 14.343, 24.354 11.548 C 27.648 8.495, 27.702 6.049, 24.548 2.646 C 21.304 -0.854, 16.301 -0.935, 12.646 2.452 M 9.035 16.934 C 8.466 17.998, 8 22.498, 8 26.934 L 8 35 18 35 L 28 35 27.968 26.750 C 27.925 15.664, 27.344 15, 17.675 15 C 11.180 15, 9.919 15.282, 9.035 16.934 M 1.709 19.624 C 1.319 20.014, 1 23.633, 1 27.667 L 1 35 4.042 35 L 7.084 35 6.792 27.250 C 6.531 20.324, 6.283 19.469, 4.459 19.208 C 3.336 19.047, 2.099 19.235, 1.709 19.624 M 29.709 19.624 C 29.319 20.014, 29 23.633, 29 27.667 L 29 35 32.042 35 L 35.084 35 34.792 27.250 C 34.531 20.324, 34.283 19.469, 32.459 19.208 C 31.336 19.047, 30.099 19.235, 29.709 19.624" stroke="none" fill="#3c4ccc" fill-rule="evenodd"/><path d="M 0.183 17.750 C 0.317 30.635, 0.522 33.307, 0.933 27.500 C 1.480 19.784, 1.589 19.500, 4 19.500 C 6.411 19.500, 6.520 19.784, 7.067 27.500 L 7.633 35.500 7.817 27.184 C 8.076 15.411, 8.409 15, 17.675 15 C 27.306 15, 27.864 15.639, 28.152 27 L 28.367 35.500 28.933 27.500 C 29.480 19.784, 29.589 19.500, 32 19.500 C 34.428 19.500, 34.508 19.724, 34.793 27.315 C 35.046 34.056, 35.321 35.085, 36.793 34.802 C 38.311 34.511, 38.530 32.562, 38.774 17.237 L 39.047 0 30.571 -0 L 22.095 -0 24.548 2.646 C 27.702 6.049, 27.648 8.495, 24.354 11.548 C 21.337 14.343, 18.157 14.649, 14.072 12.537 C 9.252 10.045, 8.696 6.113, 12.646 2.452 L 15.292 0 7.646 0 L 0 0 0.183 17.750 M 0.411 18 C 0.411 27.625, 0.561 31.562, 0.745 26.750 C 0.928 21.937, 0.928 14.062, 0.745 9.250 C 0.561 4.437, 0.411 8.375, 0.411 18" stroke="none" fill="#ccbce4" fill-rule="evenodd"/></svg>